# xmcd
#
# Track frame offsets:
#	150
#	22676
#	43528
#	65874
#	77396
#	91366
#	112984
#	136834
#	164804
#	184223
#	195610
#	213127
#	227966
#	242333
#
# Disc length: 3452 seconds
#
# Revision: 1
# Processed by: cddbd v1.5.2PL0 Copyright (c) Steve Scherf et al.
# Submitted via: audiograbber 1.83.01
#
DISCID=b20d7a0e
DTITLE=Alvin Lee - The Anthology [Volume2]-CD1
DYEAR=2008
DGENRE=Blues
TTITLE0=Alvin Lee - Gonna Turn You On
TTITLE1=Alvin Lee - Detroit Diesel
TTITLE2=Alvin Lee - Friday The 13th
TTITLE3=Alvin Lee - Truckin' Down The Other Way
TTITLE4=Alvin Lee - Rock 'n' Roll Guitar Picker
TTITLE5=Alvin Lee - Midnight Special
TTITLE6=Alvin Lee - Ain't Nothin' Shakin'
TTITLE7=Alvin Lee - I'm Gonna Make It
TTITLE8=Alvin Lee - I'm Writing You  A Letter
TTITLE9=Alvin Lee - Can't Sleep At Night
TTITLE10=Alvin Lee - One More Chance
TTITLE11=Alvin Lee - Burnt Fungus
TTITLE12=Alvin Lee - I've Got Eyes For You Baby
TTITLE13=Alvin Lee - Slow Down
EXTD=Repertoire Records
EXTT0=
EXTT1=
EXTT2=
EXTT3=
EXTT4=
EXTT5=
EXTT6=
EXTT7=
EXTT8=
EXTT9=
EXTT10=
EXTT11=
EXTT12=
EXTT13=
PLAYORDER=
